<?xml version="1.0" ?><svg id="Layer_1" style="enable-background:new 0 0 100 100;" version="1.1" viewBox="0 0 100 100" xml:space="preserve" xmlns="http://www.w3.org/2000/svg" xmlns:xlink="http://www.w3.org/1999/xlink"><path d="M11.609,50.967c0,21.168,17.222,38.391,38.391,38.391c21.169,0,38.391-17.222,38.391-38.391S71.169,12.577,50,12.577  C28.832,12.577,11.609,29.799,11.609,50.967z M84.391,50.967c0,18.963-15.428,34.391-34.391,34.391S15.609,69.93,15.609,50.967  S31.037,16.577,50,16.577S84.391,32.004,84.391,50.967z"/><path d="M18.637,50.967c0,17.294,14.069,31.363,31.363,31.363s31.363-14.069,31.363-31.363S67.294,19.604,50,19.604  S18.637,33.673,18.637,50.967z M77.363,50.967c0,15.088-12.275,27.363-27.363,27.363c-15.088,0-27.363-12.275-27.363-27.363  S34.912,23.604,50,23.604C65.088,23.604,77.363,35.879,77.363,50.967z"/><path d="M7.636,37.903c0.38,0.383,0.893,0.591,1.42,0.591c0.146,0,0.292-0.016,0.437-0.048c0.671-0.15,1.218-0.634,1.448-1.282  c3.008-8.468,8.825-15.871,16.381-20.844c0.573-0.377,0.913-1.022,0.9-1.708c-0.013-0.687-0.377-1.318-0.965-1.673  c-2.484-1.502-5.341-2.296-8.263-2.296C10.175,10.642,3,17.817,3,26.636C3,30.888,4.646,34.89,7.636,37.903z M18.994,14.642  c1.09,0,2.167,0.147,3.204,0.433C16.295,19.671,11.563,25.69,8.513,32.483C7.525,30.717,7,28.717,7,26.636  C7,20.022,12.38,14.642,18.994,14.642z"/><path d="M81.006,10.642c-2.923,0-5.779,0.794-8.263,2.296c-0.587,0.355-0.951,0.987-0.965,1.673c-0.013,0.687,0.327,1.332,0.9,1.708  c7.556,4.973,13.373,12.376,16.381,20.844c0.23,0.648,0.777,1.132,1.448,1.282c0.145,0.033,0.291,0.048,0.437,0.048  c0.527,0,1.04-0.209,1.42-0.591C95.354,34.89,97,30.888,97,26.636C97,17.817,89.825,10.642,81.006,10.642z M91.487,32.483  c-3.051-6.793-7.782-12.813-13.686-17.409c1.037-0.286,2.114-0.433,3.204-0.433c6.613,0,11.994,5.38,11.994,11.994  C93,28.717,92.475,30.717,91.487,32.483z"/><path d="M48,30.667v20.301c0,0.53,0.211,1.039,0.586,1.414l9.35,9.35c0.391,0.391,0.902,0.586,1.414,0.586s1.023-0.195,1.414-0.586  c0.781-0.781,0.781-2.047,0-2.828L52,50.139V30.667c0-1.104-0.896-2-2-2S48,29.562,48,30.667z"/></svg>